<svg xmlns="http://www.w3.org/2000/svg" viewBox="0 0 1600 700" preserveAspectRatio="xMidYMid slice" role="img" aria-label="">
  <title>Placeholder  plans et structure</title>
  <defs>
    <linearGradient id="h1" x1="0" y1="0" x2="1" y2="1">
      <stop offset="0%" stop-color="#1e293b"/>
      <stop offset="100%" stop-color="#0f172a"/>
    </linearGradient>
  </defs>
  <rect width="1600" height="700" fill="url(#h1)"/>
  <g stroke="#f97316" stroke-width="1.1" opacity="0.38" fill="none">
    <path d="M60 110h1480M60 190h1480M60 270h1480M60 350h1480M60 430h1480M60 510h1480M60 590h1480"/>
    <path d="M100 70v560M260 70v560M420 70v560M580 70v560M740 70v560M900 70v560M1060 70v560M1220 70v560M1380 70v560"/>
  </g>
  <rect x="220" y="200" width="420" height="300" fill="none" stroke="#94a3b8" stroke-width="2" opacity="0.45"/>
  <rect x="720" y="240" width="280" height="180" fill="none" stroke="#64748b" stroke-width="1.5" opacity="0.35"/>
</svg>
